<mxfile host="65bd71144e">
    <diagram id="PDsLy4f_zZ-C1rrqJ6FS" name="Page-1">
        <mxGraphModel dx="434" dy="510" grid="1" gridSize="10" guides="1" tooltips="1" connect="1" arrows="1" fold="1" page="1" pageScale="1" pageWidth="827" pageHeight="1169" math="0" shadow="0">
            <root>
                <mxCell id="0"/>
                <mxCell id="1" parent="0"/>
                <mxCell id="2" value="7" style="ellipse;whiteSpace=wrap;html=1;aspect=fixed;" parent="1" vertex="1">
                    <mxGeometry x="354.19" y="100" width="30" height="30" as="geometry"/>
                </mxCell>
                <mxCell id="3" value="3" style="ellipse;whiteSpace=wrap;html=1;aspect=fixed;" parent="1" vertex="1">
                    <mxGeometry x="260" y="170" width="30" height="30" as="geometry"/>
                </mxCell>
                <mxCell id="4" value="" style="endArrow=none;html=1;entryX=0;entryY=1;entryDx=0;entryDy=0;exitX=1;exitY=0;exitDx=0;exitDy=0;" parent="1" source="3" target="2" edge="1">
                    <mxGeometry width="50" height="50" relative="1" as="geometry">
                        <mxPoint x="320" y="230" as="sourcePoint"/>
                        <mxPoint x="370" y="180" as="targetPoint"/>
                    </mxGeometry>
                </mxCell>
                <mxCell id="5" value="8" style="ellipse;whiteSpace=wrap;html=1;aspect=fixed;" parent="1" vertex="1">
                    <mxGeometry x="453.81" y="174" width="30" height="30" as="geometry"/>
                </mxCell>
                <mxCell id="6" value="" style="endArrow=none;html=1;entryX=1;entryY=1;entryDx=0;entryDy=0;exitX=0;exitY=0;exitDx=0;exitDy=0;" parent="1" source="5" target="2" edge="1">
                    <mxGeometry width="50" height="50" relative="1" as="geometry">
                        <mxPoint x="440" y="250" as="sourcePoint"/>
                        <mxPoint x="490" y="200" as="targetPoint"/>
                    </mxGeometry>
                </mxCell>
                <mxCell id="9" value="2" style="ellipse;whiteSpace=wrap;html=1;aspect=fixed;" parent="1" vertex="1">
                    <mxGeometry x="215.61" y="214.39339828220182" width="30" height="30" as="geometry"/>
                </mxCell>
                <mxCell id="10" value="" style="endArrow=none;html=1;entryX=0;entryY=1;entryDx=0;entryDy=0;exitX=1;exitY=0;exitDx=0;exitDy=0;" parent="1" source="9" target="3" edge="1">
                    <mxGeometry width="50" height="50" relative="1" as="geometry">
                        <mxPoint x="275.61" y="274.3933982822018" as="sourcePoint"/>
                        <mxPoint x="260.00339828220183" y="200" as="targetPoint"/>
                    </mxGeometry>
                </mxCell>
                <mxCell id="13" value="5" style="ellipse;whiteSpace=wrap;html=1;aspect=fixed;" parent="1" vertex="1">
                    <mxGeometry x="304.3933982822018" y="214.39339828220182" width="30" height="30" as="geometry"/>
                </mxCell>
                <mxCell id="14" value="" style="endArrow=none;html=1;entryX=1;entryY=1;entryDx=0;entryDy=0;exitX=0;exitY=0;exitDx=0;exitDy=0;" parent="1" source="13" target="3" edge="1">
                    <mxGeometry width="50" height="50" relative="1" as="geometry">
                        <mxPoint x="404.3933982822018" y="294.3933982822018" as="sourcePoint"/>
                        <mxPoint x="290" y="200" as="targetPoint"/>
                    </mxGeometry>
                </mxCell>
                <mxCell id="ywxDrNdQzyjNlyeXv9OA-14" value="height: 3" style="text;html=1;strokeColor=none;fillColor=none;align=center;verticalAlign=middle;whiteSpace=wrap;rounded=0;dashed=1;" parent="1" vertex="1">
                    <mxGeometry x="384.19" y="106.52" width="55.81" height="16.95" as="geometry"/>
                </mxCell>
                <mxCell id="ywxDrNdQzyjNlyeXv9OA-17" value="height: 2" style="text;html=1;strokeColor=none;fillColor=none;align=center;verticalAlign=middle;whiteSpace=wrap;rounded=0;dashed=1;" parent="1" vertex="1">
                    <mxGeometry x="291.48999999999995" y="176.52" width="55.81" height="16.95" as="geometry"/>
                </mxCell>
                <mxCell id="ywxDrNdQzyjNlyeXv9OA-18" value="height: 1" style="text;html=1;strokeColor=none;fillColor=none;align=center;verticalAlign=middle;whiteSpace=wrap;rounded=0;dashed=1;" parent="1" vertex="1">
                    <mxGeometry x="483.80999999999995" y="176.52" width="55.81" height="16.95" as="geometry"/>
                </mxCell>
                <mxCell id="ywxDrNdQzyjNlyeXv9OA-19" value="height: 1" style="text;html=1;strokeColor=none;fillColor=none;align=center;verticalAlign=middle;whiteSpace=wrap;rounded=0;dashed=1;" parent="1" vertex="1">
                    <mxGeometry x="159.79999999999995" y="220.92000000000002" width="55.81" height="16.95" as="geometry"/>
                </mxCell>
                <mxCell id="ywxDrNdQzyjNlyeXv9OA-20" value="height: 1" style="text;html=1;strokeColor=none;fillColor=none;align=center;verticalAlign=middle;whiteSpace=wrap;rounded=0;dashed=1;" parent="1" vertex="1">
                    <mxGeometry x="334.39" y="220.92000000000002" width="55.81" height="16.95" as="geometry"/>
                </mxCell>
            </root>
        </mxGraphModel>
    </diagram>
    <diagram id="A1ETEz92B-_GdZJAFfuK" name="Page-2">
        <mxGraphModel dx="727" dy="567" grid="1" gridSize="10" guides="1" tooltips="1" connect="1" arrows="1" fold="1" page="1" pageScale="1" pageWidth="827" pageHeight="1169" math="0" shadow="0">
            <root>
                <mxCell id="U0LI16ThzFTzC_mekFqo-0"/>
                <mxCell id="U0LI16ThzFTzC_mekFqo-1" parent="U0LI16ThzFTzC_mekFqo-0"/>
                <mxCell id="fODxEZRQt1lMfu4_kW2Y-2" value="" style="rounded=0;whiteSpace=wrap;html=1;dashed=1;" vertex="1" parent="U0LI16ThzFTzC_mekFqo-1">
                    <mxGeometry x="290" y="204" width="70" height="56" as="geometry"/>
                </mxCell>
                <mxCell id="cjebMJaR-qzU2bz2v_MR-0" value="7" style="ellipse;whiteSpace=wrap;html=1;aspect=fixed;" vertex="1" parent="U0LI16ThzFTzC_mekFqo-1">
                    <mxGeometry x="354.19" y="100" width="30" height="30" as="geometry"/>
                </mxCell>
                <mxCell id="cjebMJaR-qzU2bz2v_MR-1" value="3" style="ellipse;whiteSpace=wrap;html=1;aspect=fixed;fillColor=#f8cecc;strokeColor=#b85450;" vertex="1" parent="U0LI16ThzFTzC_mekFqo-1">
                    <mxGeometry x="260" y="170" width="30" height="30" as="geometry"/>
                </mxCell>
                <mxCell id="cjebMJaR-qzU2bz2v_MR-2" value="" style="endArrow=none;html=1;entryX=0;entryY=1;entryDx=0;entryDy=0;exitX=1;exitY=0;exitDx=0;exitDy=0;" edge="1" parent="U0LI16ThzFTzC_mekFqo-1" source="cjebMJaR-qzU2bz2v_MR-1" target="cjebMJaR-qzU2bz2v_MR-0">
                    <mxGeometry width="50" height="50" relative="1" as="geometry">
                        <mxPoint x="320" y="230" as="sourcePoint"/>
                        <mxPoint x="370" y="180" as="targetPoint"/>
                    </mxGeometry>
                </mxCell>
                <mxCell id="cjebMJaR-qzU2bz2v_MR-3" value="8" style="ellipse;whiteSpace=wrap;html=1;aspect=fixed;" vertex="1" parent="U0LI16ThzFTzC_mekFqo-1">
                    <mxGeometry x="453.81" y="174" width="30" height="30" as="geometry"/>
                </mxCell>
                <mxCell id="cjebMJaR-qzU2bz2v_MR-4" value="" style="endArrow=none;html=1;entryX=1;entryY=1;entryDx=0;entryDy=0;exitX=0;exitY=0;exitDx=0;exitDy=0;" edge="1" parent="U0LI16ThzFTzC_mekFqo-1" source="cjebMJaR-qzU2bz2v_MR-3" target="cjebMJaR-qzU2bz2v_MR-0">
                    <mxGeometry width="50" height="50" relative="1" as="geometry">
                        <mxPoint x="440" y="250" as="sourcePoint"/>
                        <mxPoint x="490" y="200" as="targetPoint"/>
                    </mxGeometry>
                </mxCell>
                <mxCell id="cjebMJaR-qzU2bz2v_MR-5" value="2" style="ellipse;whiteSpace=wrap;html=1;aspect=fixed;" vertex="1" parent="U0LI16ThzFTzC_mekFqo-1">
                    <mxGeometry x="215.61" y="214.39339828220182" width="30" height="30" as="geometry"/>
                </mxCell>
                <mxCell id="cjebMJaR-qzU2bz2v_MR-6" value="" style="endArrow=none;html=1;entryX=0;entryY=1;entryDx=0;entryDy=0;exitX=1;exitY=0;exitDx=0;exitDy=0;" edge="1" parent="U0LI16ThzFTzC_mekFqo-1" source="cjebMJaR-qzU2bz2v_MR-5" target="cjebMJaR-qzU2bz2v_MR-1">
                    <mxGeometry width="50" height="50" relative="1" as="geometry">
                        <mxPoint x="275.61" y="274.3933982822018" as="sourcePoint"/>
                        <mxPoint x="260.00339828220183" y="200" as="targetPoint"/>
                    </mxGeometry>
                </mxCell>
                <mxCell id="cjebMJaR-qzU2bz2v_MR-7" value="5" style="ellipse;whiteSpace=wrap;html=1;aspect=fixed;" vertex="1" parent="U0LI16ThzFTzC_mekFqo-1">
                    <mxGeometry x="304.3933982822018" y="214.39339828220182" width="30" height="30" as="geometry"/>
                </mxCell>
                <mxCell id="cjebMJaR-qzU2bz2v_MR-8" value="" style="endArrow=none;html=1;entryX=1;entryY=1;entryDx=0;entryDy=0;exitX=0;exitY=0;exitDx=0;exitDy=0;" edge="1" parent="U0LI16ThzFTzC_mekFqo-1" source="cjebMJaR-qzU2bz2v_MR-7" target="cjebMJaR-qzU2bz2v_MR-1">
                    <mxGeometry width="50" height="50" relative="1" as="geometry">
                        <mxPoint x="404.3933982822018" y="294.3933982822018" as="sourcePoint"/>
                        <mxPoint x="290" y="200" as="targetPoint"/>
                    </mxGeometry>
                </mxCell>
                <mxCell id="7VynFC_c9FypP0gHt2bT-0" value="1" style="ellipse;whiteSpace=wrap;html=1;aspect=fixed;fillColor=#dae8fc;strokeColor=#6c8ebf;" vertex="1" parent="U0LI16ThzFTzC_mekFqo-1">
                    <mxGeometry x="170" y="258.78679656440033" width="30" height="30" as="geometry"/>
                </mxCell>
                <mxCell id="7VynFC_c9FypP0gHt2bT-1" value="" style="endArrow=none;html=1;exitX=1;exitY=0;exitDx=0;exitDy=0;" edge="1" source="7VynFC_c9FypP0gHt2bT-0" parent="U0LI16ThzFTzC_mekFqo-1" target="cjebMJaR-qzU2bz2v_MR-5">
                    <mxGeometry width="50" height="50" relative="1" as="geometry">
                        <mxPoint x="230" y="318.78679656440033" as="sourcePoint"/>
                        <mxPoint x="218.7833982821985" y="240" as="targetPoint"/>
                    </mxGeometry>
                </mxCell>
                <mxCell id="95cG8EGlvCz47UEC48y8-0" value="A" style="text;html=1;strokeColor=none;fillColor=none;align=center;verticalAlign=middle;whiteSpace=wrap;rounded=0;dashed=1;" vertex="1" parent="U0LI16ThzFTzC_mekFqo-1">
                    <mxGeometry x="342" y="244" width="18.66" height="16.95" as="geometry"/>
                </mxCell>
                <mxCell id="-jdpykseYhhjxq7JbkWq-0" value="height: 1" style="text;html=1;strokeColor=none;fillColor=none;align=center;verticalAlign=middle;whiteSpace=wrap;rounded=0;dashed=1;" vertex="1" parent="U0LI16ThzFTzC_mekFqo-1">
                    <mxGeometry x="114.18999999999996" y="265.31" width="55.81" height="16.95" as="geometry"/>
                </mxCell>
                <mxCell id="-jdpykseYhhjxq7JbkWq-1" value="height: 2" style="text;html=1;strokeColor=none;fillColor=none;align=center;verticalAlign=middle;whiteSpace=wrap;rounded=0;dashed=1;" vertex="1" parent="U0LI16ThzFTzC_mekFqo-1">
                    <mxGeometry x="157.09999999999997" y="220.92000000000002" width="55.81" height="16.95" as="geometry"/>
                </mxCell>
                <mxCell id="-jdpykseYhhjxq7JbkWq-2" value="height: 1" style="text;html=1;strokeColor=none;fillColor=none;align=center;verticalAlign=middle;whiteSpace=wrap;rounded=0;dashed=1;" vertex="1" parent="U0LI16ThzFTzC_mekFqo-1">
                    <mxGeometry x="334.39" y="220.92000000000002" width="55.81" height="16.95" as="geometry"/>
                </mxCell>
                <mxCell id="-jdpykseYhhjxq7JbkWq-3" value="height: 1" style="text;html=1;strokeColor=none;fillColor=none;align=center;verticalAlign=middle;whiteSpace=wrap;rounded=0;dashed=1;" vertex="1" parent="U0LI16ThzFTzC_mekFqo-1">
                    <mxGeometry x="483.80999999999995" y="180.52" width="55.81" height="16.95" as="geometry"/>
                </mxCell>
                <mxCell id="-jdpykseYhhjxq7JbkWq-4" value="height: 3" style="text;html=1;strokeColor=none;fillColor=none;align=center;verticalAlign=middle;whiteSpace=wrap;rounded=0;dashed=1;" vertex="1" parent="U0LI16ThzFTzC_mekFqo-1">
                    <mxGeometry x="204.18999999999994" y="176.52" width="55.81" height="16.95" as="geometry"/>
                </mxCell>
                <mxCell id="-jdpykseYhhjxq7JbkWq-5" value="height: 4" style="text;html=1;strokeColor=none;fillColor=none;align=center;verticalAlign=middle;whiteSpace=wrap;rounded=0;dashed=1;" vertex="1" parent="U0LI16ThzFTzC_mekFqo-1">
                    <mxGeometry x="298.37999999999994" y="106.52000000000001" width="55.81" height="16.95" as="geometry"/>
                </mxCell>
            </root>
        </mxGraphModel>
    </diagram>
    <diagram id="gIOm9xvRBAa7ZpTvHARg" name="Page-3">
        <mxGraphModel dx="654" dy="510" grid="1" gridSize="10" guides="1" tooltips="1" connect="1" arrows="1" fold="1" page="1" pageScale="1" pageWidth="827" pageHeight="1169" math="0" shadow="0">
            <root>
                <mxCell id="B3gvs7MUFSlp39JEWeYU-0"/>
                <mxCell id="B3gvs7MUFSlp39JEWeYU-1" parent="B3gvs7MUFSlp39JEWeYU-0"/>
                <mxCell id="6J8DAjIMlAsBPKac8DsQ-0" value="" style="rounded=0;whiteSpace=wrap;html=1;dashed=1;" vertex="1" parent="B3gvs7MUFSlp39JEWeYU-1">
                    <mxGeometry x="280" y="130" width="70" height="56" as="geometry"/>
                </mxCell>
                <mxCell id="6J8DAjIMlAsBPKac8DsQ-1" value="7" style="ellipse;whiteSpace=wrap;html=1;aspect=fixed;" vertex="1" parent="B3gvs7MUFSlp39JEWeYU-1">
                    <mxGeometry x="340" y="100" width="30" height="30" as="geometry"/>
                </mxCell>
                <mxCell id="6J8DAjIMlAsBPKac8DsQ-2" value="3" style="ellipse;whiteSpace=wrap;html=1;aspect=fixed;fillColor=#f8cecc;strokeColor=#b85450;" vertex="1" parent="B3gvs7MUFSlp39JEWeYU-1">
                    <mxGeometry x="290" y="60" width="30" height="30" as="geometry"/>
                </mxCell>
                <mxCell id="6J8DAjIMlAsBPKac8DsQ-3" value="" style="endArrow=none;html=1;entryX=0;entryY=0;entryDx=0;entryDy=0;exitX=1;exitY=1;exitDx=0;exitDy=0;" edge="1" parent="B3gvs7MUFSlp39JEWeYU-1" source="6J8DAjIMlAsBPKac8DsQ-2" target="6J8DAjIMlAsBPKac8DsQ-1">
                    <mxGeometry width="50" height="50" relative="1" as="geometry">
                        <mxPoint x="320" y="230" as="sourcePoint"/>
                        <mxPoint x="370" y="180" as="targetPoint"/>
                    </mxGeometry>
                </mxCell>
                <mxCell id="6J8DAjIMlAsBPKac8DsQ-4" value="8" style="ellipse;whiteSpace=wrap;html=1;aspect=fixed;" vertex="1" parent="B3gvs7MUFSlp39JEWeYU-1">
                    <mxGeometry x="384.39" y="140" width="30" height="30" as="geometry"/>
                </mxCell>
                <mxCell id="6J8DAjIMlAsBPKac8DsQ-5" value="" style="endArrow=none;html=1;entryX=1;entryY=1;entryDx=0;entryDy=0;exitX=0;exitY=0;exitDx=0;exitDy=0;" edge="1" parent="B3gvs7MUFSlp39JEWeYU-1" source="6J8DAjIMlAsBPKac8DsQ-4" target="6J8DAjIMlAsBPKac8DsQ-1">
                    <mxGeometry width="50" height="50" relative="1" as="geometry">
                        <mxPoint x="440" y="250" as="sourcePoint"/>
                        <mxPoint x="490" y="200" as="targetPoint"/>
                    </mxGeometry>
                </mxCell>
                <mxCell id="6J8DAjIMlAsBPKac8DsQ-6" value="2" style="ellipse;whiteSpace=wrap;html=1;aspect=fixed;" vertex="1" parent="B3gvs7MUFSlp39JEWeYU-1">
                    <mxGeometry x="245.61" y="100.00339828220181" width="30" height="30" as="geometry"/>
                </mxCell>
                <mxCell id="6J8DAjIMlAsBPKac8DsQ-7" value="" style="endArrow=none;html=1;entryX=0;entryY=1;entryDx=0;entryDy=0;exitX=1;exitY=0;exitDx=0;exitDy=0;" edge="1" parent="B3gvs7MUFSlp39JEWeYU-1" source="6J8DAjIMlAsBPKac8DsQ-6" target="6J8DAjIMlAsBPKac8DsQ-2">
                    <mxGeometry width="50" height="50" relative="1" as="geometry">
                        <mxPoint x="275.61" y="274.3933982822018" as="sourcePoint"/>
                        <mxPoint x="260.00339828220183" y="200" as="targetPoint"/>
                    </mxGeometry>
                </mxCell>
                <mxCell id="6J8DAjIMlAsBPKac8DsQ-13" style="html=1;exitX=1;exitY=0;exitDx=0;exitDy=0;endArrow=none;endFill=0;" edge="1" parent="B3gvs7MUFSlp39JEWeYU-1" source="6J8DAjIMlAsBPKac8DsQ-8" target="6J8DAjIMlAsBPKac8DsQ-1">
                    <mxGeometry relative="1" as="geometry"/>
                </mxCell>
                <mxCell id="6J8DAjIMlAsBPKac8DsQ-8" value="5" style="ellipse;whiteSpace=wrap;html=1;aspect=fixed;" vertex="1" parent="B3gvs7MUFSlp39JEWeYU-1">
                    <mxGeometry x="294.3933982822018" y="140.39339828220182" width="30" height="30" as="geometry"/>
                </mxCell>
                <mxCell id="6J8DAjIMlAsBPKac8DsQ-10" value="1" style="ellipse;whiteSpace=wrap;html=1;aspect=fixed;fillColor=#dae8fc;strokeColor=#6c8ebf;" vertex="1" parent="B3gvs7MUFSlp39JEWeYU-1">
                    <mxGeometry x="200" y="144.39679656440032" width="30" height="30" as="geometry"/>
                </mxCell>
                <mxCell id="6J8DAjIMlAsBPKac8DsQ-11" value="" style="endArrow=none;html=1;exitX=1;exitY=0;exitDx=0;exitDy=0;" edge="1" parent="B3gvs7MUFSlp39JEWeYU-1" source="6J8DAjIMlAsBPKac8DsQ-10" target="6J8DAjIMlAsBPKac8DsQ-6">
                    <mxGeometry width="50" height="50" relative="1" as="geometry">
                        <mxPoint x="260" y="204.39679656440032" as="sourcePoint"/>
                        <mxPoint x="248.7833982821985" y="125.61" as="targetPoint"/>
                    </mxGeometry>
                </mxCell>
                <mxCell id="6J8DAjIMlAsBPKac8DsQ-12" value="A" style="text;html=1;strokeColor=none;fillColor=none;align=center;verticalAlign=middle;whiteSpace=wrap;rounded=0;dashed=1;" vertex="1" parent="B3gvs7MUFSlp39JEWeYU-1">
                    <mxGeometry x="332" y="170" width="18.66" height="16.95" as="geometry"/>
                </mxCell>
            </root>
        </mxGraphModel>
    </diagram>
    <diagram id="dE0DM8MCHmEFSi1aCVEy" name="Page-4">
        <mxGraphModel dx="434" dy="510" grid="1" gridSize="10" guides="1" tooltips="1" connect="1" arrows="1" fold="1" page="1" pageScale="1" pageWidth="827" pageHeight="1169" math="0" shadow="0">
            <root>
                <mxCell id="0q-RCLuP74MCd_gRrG2g-0"/>
                <mxCell id="0q-RCLuP74MCd_gRrG2g-1" parent="0q-RCLuP74MCd_gRrG2g-0"/>
                <mxCell id="v6JM4WhQr6O_34wnlhMI-3" value="" style="rounded=0;whiteSpace=wrap;html=1;dashed=1;" parent="0q-RCLuP74MCd_gRrG2g-1" vertex="1">
                    <mxGeometry x="290" y="210" width="100" height="90" as="geometry"/>
                </mxCell>
                <mxCell id="0q-RCLuP74MCd_gRrG2g-2" value="7" style="ellipse;whiteSpace=wrap;html=1;aspect=fixed;" parent="0q-RCLuP74MCd_gRrG2g-1" vertex="1">
                    <mxGeometry x="354.19" y="100" width="30" height="30" as="geometry"/>
                </mxCell>
                <mxCell id="0q-RCLuP74MCd_gRrG2g-3" value="3" style="ellipse;whiteSpace=wrap;html=1;aspect=fixed;fillColor=#f8cecc;strokeColor=#b85450;" parent="0q-RCLuP74MCd_gRrG2g-1" vertex="1">
                    <mxGeometry x="260" y="170" width="30" height="30" as="geometry"/>
                </mxCell>
                <mxCell id="0q-RCLuP74MCd_gRrG2g-4" value="" style="endArrow=none;html=1;entryX=0;entryY=1;entryDx=0;entryDy=0;exitX=1;exitY=0;exitDx=0;exitDy=0;" parent="0q-RCLuP74MCd_gRrG2g-1" source="0q-RCLuP74MCd_gRrG2g-3" target="0q-RCLuP74MCd_gRrG2g-2" edge="1">
                    <mxGeometry width="50" height="50" relative="1" as="geometry">
                        <mxPoint x="320" y="230" as="sourcePoint"/>
                        <mxPoint x="370" y="180" as="targetPoint"/>
                    </mxGeometry>
                </mxCell>
                <mxCell id="0q-RCLuP74MCd_gRrG2g-5" value="8" style="ellipse;whiteSpace=wrap;html=1;aspect=fixed;" parent="0q-RCLuP74MCd_gRrG2g-1" vertex="1">
                    <mxGeometry x="453.81" y="174" width="30" height="30" as="geometry"/>
                </mxCell>
                <mxCell id="0q-RCLuP74MCd_gRrG2g-6" value="" style="endArrow=none;html=1;entryX=1;entryY=1;entryDx=0;entryDy=0;exitX=0;exitY=0;exitDx=0;exitDy=0;" parent="0q-RCLuP74MCd_gRrG2g-1" source="0q-RCLuP74MCd_gRrG2g-5" target="0q-RCLuP74MCd_gRrG2g-2" edge="1">
                    <mxGeometry width="50" height="50" relative="1" as="geometry">
                        <mxPoint x="440" y="250" as="sourcePoint"/>
                        <mxPoint x="490" y="200" as="targetPoint"/>
                    </mxGeometry>
                </mxCell>
                <mxCell id="0q-RCLuP74MCd_gRrG2g-7" value="2" style="ellipse;whiteSpace=wrap;html=1;aspect=fixed;" parent="0q-RCLuP74MCd_gRrG2g-1" vertex="1">
                    <mxGeometry x="215.61" y="214.39339828220182" width="30" height="30" as="geometry"/>
                </mxCell>
                <mxCell id="0q-RCLuP74MCd_gRrG2g-8" value="" style="endArrow=none;html=1;entryX=0;entryY=1;entryDx=0;entryDy=0;exitX=1;exitY=0;exitDx=0;exitDy=0;" parent="0q-RCLuP74MCd_gRrG2g-1" source="0q-RCLuP74MCd_gRrG2g-7" target="0q-RCLuP74MCd_gRrG2g-3" edge="1">
                    <mxGeometry width="50" height="50" relative="1" as="geometry">
                        <mxPoint x="275.61" y="274.3933982822018" as="sourcePoint"/>
                        <mxPoint x="260.00339828220183" y="200" as="targetPoint"/>
                    </mxGeometry>
                </mxCell>
                <mxCell id="0q-RCLuP74MCd_gRrG2g-9" value="5" style="ellipse;whiteSpace=wrap;html=1;aspect=fixed;" parent="0q-RCLuP74MCd_gRrG2g-1" vertex="1">
                    <mxGeometry x="304.3933982822018" y="214.39339828220182" width="30" height="30" as="geometry"/>
                </mxCell>
                <mxCell id="0q-RCLuP74MCd_gRrG2g-10" value="" style="endArrow=none;html=1;entryX=1;entryY=1;entryDx=0;entryDy=0;exitX=0;exitY=0;exitDx=0;exitDy=0;" parent="0q-RCLuP74MCd_gRrG2g-1" source="0q-RCLuP74MCd_gRrG2g-9" target="0q-RCLuP74MCd_gRrG2g-3" edge="1">
                    <mxGeometry width="50" height="50" relative="1" as="geometry">
                        <mxPoint x="404.3933982822018" y="294.3933982822018" as="sourcePoint"/>
                        <mxPoint x="290" y="200" as="targetPoint"/>
                    </mxGeometry>
                </mxCell>
                <mxCell id="0q-RCLuP74MCd_gRrG2g-14" value="6" style="ellipse;whiteSpace=wrap;html=1;aspect=fixed;fillColor=#dae8fc;strokeColor=#6c8ebf;" parent="0q-RCLuP74MCd_gRrG2g-1" vertex="1">
                    <mxGeometry x="348.7833982822018" y="258.7833982822018" width="30" height="30" as="geometry"/>
                </mxCell>
                <mxCell id="0q-RCLuP74MCd_gRrG2g-15" value="" style="endArrow=none;html=1;exitX=0;exitY=0;exitDx=0;exitDy=0;" parent="0q-RCLuP74MCd_gRrG2g-1" source="0q-RCLuP74MCd_gRrG2g-14" target="0q-RCLuP74MCd_gRrG2g-9" edge="1">
                    <mxGeometry width="50" height="50" relative="1" as="geometry">
                        <mxPoint x="448.7833982822018" y="338.7833982822018" as="sourcePoint"/>
                        <mxPoint x="329.99660171779817" y="239.99660171779817" as="targetPoint"/>
                    </mxGeometry>
                </mxCell>
                <mxCell id="v6JM4WhQr6O_34wnlhMI-4" value="A" style="text;html=1;strokeColor=none;fillColor=none;align=center;verticalAlign=middle;whiteSpace=wrap;rounded=0;dashed=1;" parent="0q-RCLuP74MCd_gRrG2g-1" vertex="1">
                    <mxGeometry x="290" y="280" width="18.66" height="16.95" as="geometry"/>
                </mxCell>
                <mxCell id="K3rINB1OM2ZtlQIej0r_-0" value="height: 1" style="text;html=1;strokeColor=none;fillColor=none;align=center;verticalAlign=middle;whiteSpace=wrap;rounded=0;dashed=1;" vertex="1" parent="0q-RCLuP74MCd_gRrG2g-1">
                    <mxGeometry x="159.99999999999994" y="221" width="55.81" height="16.95" as="geometry"/>
                </mxCell>
                <mxCell id="K3rINB1OM2ZtlQIej0r_-1" value="height: 1" style="text;html=1;strokeColor=none;fillColor=none;align=center;verticalAlign=middle;whiteSpace=wrap;rounded=0;dashed=1;" vertex="1" parent="0q-RCLuP74MCd_gRrG2g-1">
                    <mxGeometry x="378.78" y="265.31" width="55.81" height="16.95" as="geometry"/>
                </mxCell>
                <mxCell id="K3rINB1OM2ZtlQIej0r_-2" value="height: 2" style="text;html=1;strokeColor=none;fillColor=none;align=center;verticalAlign=middle;whiteSpace=wrap;rounded=0;dashed=1;" vertex="1" parent="0q-RCLuP74MCd_gRrG2g-1">
                    <mxGeometry x="334.18999999999994" y="221" width="55.81" height="16.95" as="geometry"/>
                </mxCell>
                <mxCell id="K3rINB1OM2ZtlQIej0r_-3" value="height: 3" style="text;html=1;strokeColor=none;fillColor=none;align=center;verticalAlign=middle;whiteSpace=wrap;rounded=0;dashed=1;" vertex="1" parent="0q-RCLuP74MCd_gRrG2g-1">
                    <mxGeometry x="204.18999999999994" y="174" width="55.81" height="16.95" as="geometry"/>
                </mxCell>
                <mxCell id="K3rINB1OM2ZtlQIej0r_-4" value="height: 1" style="text;html=1;strokeColor=none;fillColor=none;align=center;verticalAlign=middle;whiteSpace=wrap;rounded=0;dashed=1;" vertex="1" parent="0q-RCLuP74MCd_gRrG2g-1">
                    <mxGeometry x="483.80999999999995" y="180.51999999999998" width="55.81" height="16.95" as="geometry"/>
                </mxCell>
                <mxCell id="K3rINB1OM2ZtlQIej0r_-5" value="height: 4" style="text;html=1;strokeColor=none;fillColor=none;align=center;verticalAlign=middle;whiteSpace=wrap;rounded=0;dashed=1;" vertex="1" parent="0q-RCLuP74MCd_gRrG2g-1">
                    <mxGeometry x="292.9699999999999" y="106.52000000000001" width="55.81" height="16.95" as="geometry"/>
                </mxCell>
            </root>
        </mxGraphModel>
    </diagram>
    <diagram id="ZOZqtbMrinXcaQaFx5Sj" name="Page-5">
        <mxGraphModel dx="434" dy="510" grid="1" gridSize="10" guides="1" tooltips="1" connect="1" arrows="1" fold="1" page="1" pageScale="1" pageWidth="827" pageHeight="1169" math="0" shadow="0">
            <root>
                <mxCell id="srx_pqPN8GiLdJlBJ631-0"/>
                <mxCell id="srx_pqPN8GiLdJlBJ631-1" parent="srx_pqPN8GiLdJlBJ631-0"/>
                <mxCell id="srx_pqPN8GiLdJlBJ631-2" value="7" style="ellipse;whiteSpace=wrap;html=1;aspect=fixed;" parent="srx_pqPN8GiLdJlBJ631-1" vertex="1">
                    <mxGeometry x="399" y="130" width="30" height="30" as="geometry"/>
                </mxCell>
                <mxCell id="srx_pqPN8GiLdJlBJ631-3" value="3" style="ellipse;whiteSpace=wrap;html=1;aspect=fixed;fillColor=#f8cecc;strokeColor=#b85450;" parent="srx_pqPN8GiLdJlBJ631-1" vertex="1">
                    <mxGeometry x="338.66" y="80" width="30" height="30" as="geometry"/>
                </mxCell>
                <mxCell id="srx_pqPN8GiLdJlBJ631-4" value="" style="endArrow=none;html=1;entryX=0;entryY=0;entryDx=0;entryDy=0;exitX=1;exitY=1;exitDx=0;exitDy=0;" parent="srx_pqPN8GiLdJlBJ631-1" source="srx_pqPN8GiLdJlBJ631-3" target="srx_pqPN8GiLdJlBJ631-2" edge="1">
                    <mxGeometry width="50" height="50" relative="1" as="geometry">
                        <mxPoint x="320" y="230" as="sourcePoint"/>
                        <mxPoint x="370" y="180" as="targetPoint"/>
                    </mxGeometry>
                </mxCell>
                <mxCell id="srx_pqPN8GiLdJlBJ631-5" value="8" style="ellipse;whiteSpace=wrap;html=1;aspect=fixed;" parent="srx_pqPN8GiLdJlBJ631-1" vertex="1">
                    <mxGeometry x="453.81" y="174" width="30" height="30" as="geometry"/>
                </mxCell>
                <mxCell id="srx_pqPN8GiLdJlBJ631-6" value="" style="endArrow=none;html=1;exitX=0;exitY=0;exitDx=0;exitDy=0;" parent="srx_pqPN8GiLdJlBJ631-1" source="srx_pqPN8GiLdJlBJ631-5" target="srx_pqPN8GiLdJlBJ631-2" edge="1">
                    <mxGeometry width="50" height="50" relative="1" as="geometry">
                        <mxPoint x="440" y="250" as="sourcePoint"/>
                        <mxPoint x="430" y="150" as="targetPoint"/>
                    </mxGeometry>
                </mxCell>
                <mxCell id="srx_pqPN8GiLdJlBJ631-7" value="2" style="ellipse;whiteSpace=wrap;html=1;aspect=fixed;" parent="srx_pqPN8GiLdJlBJ631-1" vertex="1">
                    <mxGeometry x="280" y="130.00339828220183" width="30" height="30" as="geometry"/>
                </mxCell>
                <mxCell id="srx_pqPN8GiLdJlBJ631-8" value="" style="endArrow=none;html=1;entryX=0;entryY=1;entryDx=0;entryDy=0;exitX=1;exitY=0;exitDx=0;exitDy=0;" parent="srx_pqPN8GiLdJlBJ631-1" source="srx_pqPN8GiLdJlBJ631-7" target="srx_pqPN8GiLdJlBJ631-3" edge="1">
                    <mxGeometry width="50" height="50" relative="1" as="geometry">
                        <mxPoint x="275.61" y="274.3933982822018" as="sourcePoint"/>
                        <mxPoint x="260.00339828220183" y="200" as="targetPoint"/>
                    </mxGeometry>
                </mxCell>
                <mxCell id="QXM05vNPRQlsm8f2P3gv-0" value="" style="rounded=0;whiteSpace=wrap;html=1;dashed=1;" parent="srx_pqPN8GiLdJlBJ631-1" vertex="1">
                    <mxGeometry x="338.66" y="174" width="101.34" height="90" as="geometry"/>
                </mxCell>
                <mxCell id="QXM05vNPRQlsm8f2P3gv-1" value="5" style="ellipse;whiteSpace=wrap;html=1;aspect=fixed;" parent="srx_pqPN8GiLdJlBJ631-1" vertex="1">
                    <mxGeometry x="353.05339828220184" y="178.39339828220182" width="30" height="30" as="geometry"/>
                </mxCell>
                <mxCell id="QXM05vNPRQlsm8f2P3gv-2" value="6" style="ellipse;whiteSpace=wrap;html=1;aspect=fixed;fillColor=#dae8fc;strokeColor=#6c8ebf;" parent="srx_pqPN8GiLdJlBJ631-1" vertex="1">
                    <mxGeometry x="397.4433982822018" y="222.7833982822018" width="30" height="30" as="geometry"/>
                </mxCell>
                <mxCell id="QXM05vNPRQlsm8f2P3gv-3" value="" style="endArrow=none;html=1;exitX=0;exitY=0;exitDx=0;exitDy=0;" parent="srx_pqPN8GiLdJlBJ631-1" source="QXM05vNPRQlsm8f2P3gv-2" target="QXM05vNPRQlsm8f2P3gv-1" edge="1">
                    <mxGeometry width="50" height="50" relative="1" as="geometry">
                        <mxPoint x="497.4433982822018" y="302.7833982822018" as="sourcePoint"/>
                        <mxPoint x="378.6566017177982" y="203.99660171779817" as="targetPoint"/>
                    </mxGeometry>
                </mxCell>
                <mxCell id="QXM05vNPRQlsm8f2P3gv-4" value="A" style="text;html=1;strokeColor=none;fillColor=none;align=center;verticalAlign=middle;whiteSpace=wrap;rounded=0;dashed=1;" parent="srx_pqPN8GiLdJlBJ631-1" vertex="1">
                    <mxGeometry x="338.66" y="244" width="18.66" height="16.95" as="geometry"/>
                </mxCell>
                <mxCell id="QXM05vNPRQlsm8f2P3gv-5" value="" style="endArrow=none;html=1;entryX=0;entryY=1;entryDx=0;entryDy=0;exitX=1;exitY=0;exitDx=0;exitDy=0;" parent="srx_pqPN8GiLdJlBJ631-1" source="QXM05vNPRQlsm8f2P3gv-1" target="srx_pqPN8GiLdJlBJ631-2" edge="1">
                    <mxGeometry width="50" height="50" relative="1" as="geometry">
                        <mxPoint x="480" y="280" as="sourcePoint"/>
                        <mxPoint x="530" y="230" as="targetPoint"/>
                    </mxGeometry>
                </mxCell>
                <mxCell id="of2gc-iA1AfvIlcgFHzI-0" value="height: 3" style="text;html=1;strokeColor=none;fillColor=none;align=center;verticalAlign=middle;whiteSpace=wrap;rounded=0;dashed=1;" vertex="1" parent="srx_pqPN8GiLdJlBJ631-1">
                    <mxGeometry x="428.99999999999994" y="137" width="55.81" height="16.95" as="geometry"/>
                </mxCell>
                <mxCell id="of2gc-iA1AfvIlcgFHzI-1" value="height: 1" style="text;html=1;strokeColor=none;fillColor=none;align=center;verticalAlign=middle;whiteSpace=wrap;rounded=0;dashed=1;" vertex="1" parent="srx_pqPN8GiLdJlBJ631-1">
                    <mxGeometry x="428.99999999999994" y="229.31" width="55.81" height="16.95" as="geometry"/>
                </mxCell>
                <mxCell id="of2gc-iA1AfvIlcgFHzI-2" value="height: 1" style="text;html=1;strokeColor=none;fillColor=none;align=center;verticalAlign=middle;whiteSpace=wrap;rounded=0;dashed=1;" vertex="1" parent="srx_pqPN8GiLdJlBJ631-1">
                    <mxGeometry x="484.80999999999995" y="180.53" width="55.81" height="16.95" as="geometry"/>
                </mxCell>
                <mxCell id="of2gc-iA1AfvIlcgFHzI-3" value="height: 1" style="text;html=1;strokeColor=none;fillColor=none;align=center;verticalAlign=middle;whiteSpace=wrap;rounded=0;dashed=1;" vertex="1" parent="srx_pqPN8GiLdJlBJ631-1">
                    <mxGeometry x="224.18999999999994" y="137" width="55.81" height="16.95" as="geometry"/>
                </mxCell>
                <mxCell id="of2gc-iA1AfvIlcgFHzI-4" value="height: 2" style="text;html=1;strokeColor=none;fillColor=none;align=center;verticalAlign=middle;whiteSpace=wrap;rounded=0;dashed=1;" vertex="1" parent="srx_pqPN8GiLdJlBJ631-1">
                    <mxGeometry x="297.23999999999995" y="184.92000000000002" width="55.81" height="16.95" as="geometry"/>
                </mxCell>
                <mxCell id="7inFDkB9EqBH8Bze-b3N-0" value="height: 4" style="text;html=1;strokeColor=none;fillColor=none;align=center;verticalAlign=middle;whiteSpace=wrap;rounded=0;dashed=1;" vertex="1" parent="srx_pqPN8GiLdJlBJ631-1">
                    <mxGeometry x="368.65999999999997" y="86.52000000000001" width="55.81" height="16.95" as="geometry"/>
                </mxCell>
            </root>
        </mxGraphModel>
    </diagram>
    <diagram id="D0i--aWCvPSY_uz-rw34" name="Page-6">
        <mxGraphModel dx="434" dy="510" grid="1" gridSize="10" guides="1" tooltips="1" connect="1" arrows="1" fold="1" page="1" pageScale="1" pageWidth="827" pageHeight="1169" math="0" shadow="0">
            <root>
                <mxCell id="CwWkg3jVypmiuO7Wgu9f-0"/>
                <mxCell id="CwWkg3jVypmiuO7Wgu9f-1" parent="CwWkg3jVypmiuO7Wgu9f-0"/>
                <mxCell id="CwWkg3jVypmiuO7Wgu9f-3" value="7" style="ellipse;whiteSpace=wrap;html=1;aspect=fixed;" vertex="1" parent="CwWkg3jVypmiuO7Wgu9f-1">
                    <mxGeometry x="354.19" y="100" width="30" height="30" as="geometry"/>
                </mxCell>
                <mxCell id="CwWkg3jVypmiuO7Wgu9f-4" value="3" style="ellipse;whiteSpace=wrap;html=1;aspect=fixed;fillColor=#f8cecc;strokeColor=#b85450;" vertex="1" parent="CwWkg3jVypmiuO7Wgu9f-1">
                    <mxGeometry x="260" y="170" width="30" height="30" as="geometry"/>
                </mxCell>
                <mxCell id="CwWkg3jVypmiuO7Wgu9f-5" value="" style="endArrow=none;html=1;entryX=0;entryY=1;entryDx=0;entryDy=0;exitX=1;exitY=0;exitDx=0;exitDy=0;" edge="1" parent="CwWkg3jVypmiuO7Wgu9f-1" source="CwWkg3jVypmiuO7Wgu9f-4" target="CwWkg3jVypmiuO7Wgu9f-3">
                    <mxGeometry width="50" height="50" relative="1" as="geometry">
                        <mxPoint x="320" y="230" as="sourcePoint"/>
                        <mxPoint x="370" y="180" as="targetPoint"/>
                    </mxGeometry>
                </mxCell>
                <mxCell id="CwWkg3jVypmiuO7Wgu9f-6" value="8" style="ellipse;whiteSpace=wrap;html=1;aspect=fixed;" vertex="1" parent="CwWkg3jVypmiuO7Wgu9f-1">
                    <mxGeometry x="453.81" y="174" width="30" height="30" as="geometry"/>
                </mxCell>
                <mxCell id="CwWkg3jVypmiuO7Wgu9f-7" value="" style="endArrow=none;html=1;entryX=1;entryY=1;entryDx=0;entryDy=0;exitX=0;exitY=0;exitDx=0;exitDy=0;" edge="1" parent="CwWkg3jVypmiuO7Wgu9f-1" source="CwWkg3jVypmiuO7Wgu9f-6" target="CwWkg3jVypmiuO7Wgu9f-3">
                    <mxGeometry width="50" height="50" relative="1" as="geometry">
                        <mxPoint x="440" y="250" as="sourcePoint"/>
                        <mxPoint x="490" y="200" as="targetPoint"/>
                    </mxGeometry>
                </mxCell>
                <mxCell id="CwWkg3jVypmiuO7Wgu9f-8" value="2" style="ellipse;whiteSpace=wrap;html=1;aspect=fixed;" vertex="1" parent="CwWkg3jVypmiuO7Wgu9f-1">
                    <mxGeometry x="215.61" y="214.39339828220182" width="30" height="30" as="geometry"/>
                </mxCell>
                <mxCell id="CwWkg3jVypmiuO7Wgu9f-9" value="" style="endArrow=none;html=1;entryX=0;entryY=1;entryDx=0;entryDy=0;exitX=1;exitY=0;exitDx=0;exitDy=0;" edge="1" parent="CwWkg3jVypmiuO7Wgu9f-1" source="CwWkg3jVypmiuO7Wgu9f-8" target="CwWkg3jVypmiuO7Wgu9f-4">
                    <mxGeometry width="50" height="50" relative="1" as="geometry">
                        <mxPoint x="275.61" y="274.3933982822018" as="sourcePoint"/>
                        <mxPoint x="260.00339828220183" y="200" as="targetPoint"/>
                    </mxGeometry>
                </mxCell>
                <mxCell id="CwWkg3jVypmiuO7Wgu9f-15" value="height: 1" style="text;html=1;strokeColor=none;fillColor=none;align=center;verticalAlign=middle;whiteSpace=wrap;rounded=0;dashed=1;" vertex="1" parent="CwWkg3jVypmiuO7Wgu9f-1">
                    <mxGeometry x="159.99999999999994" y="221" width="55.81" height="16.95" as="geometry"/>
                </mxCell>
                <mxCell id="CwWkg3jVypmiuO7Wgu9f-18" value="height: 2" style="text;html=1;strokeColor=none;fillColor=none;align=center;verticalAlign=middle;whiteSpace=wrap;rounded=0;dashed=1;" vertex="1" parent="CwWkg3jVypmiuO7Wgu9f-1">
                    <mxGeometry x="204.18999999999994" y="174" width="55.81" height="16.95" as="geometry"/>
                </mxCell>
                <mxCell id="CwWkg3jVypmiuO7Wgu9f-19" value="height: 1" style="text;html=1;strokeColor=none;fillColor=none;align=center;verticalAlign=middle;whiteSpace=wrap;rounded=0;dashed=1;" vertex="1" parent="CwWkg3jVypmiuO7Wgu9f-1">
                    <mxGeometry x="483.80999999999995" y="180.51999999999998" width="55.81" height="16.95" as="geometry"/>
                </mxCell>
                <mxCell id="CwWkg3jVypmiuO7Wgu9f-20" value="height: 4" style="text;html=1;strokeColor=none;fillColor=none;align=center;verticalAlign=middle;whiteSpace=wrap;rounded=0;dashed=1;" vertex="1" parent="CwWkg3jVypmiuO7Wgu9f-1">
                    <mxGeometry x="292.9699999999999" y="106.52000000000001" width="55.81" height="16.95" as="geometry"/>
                </mxCell>
            </root>
        </mxGraphModel>
    </diagram>
    <diagram id="9hRlle7dJfKbLUO6s5ha" name="Page-7">
        <mxGraphModel dx="434" dy="510" grid="1" gridSize="10" guides="1" tooltips="1" connect="1" arrows="1" fold="1" page="1" pageScale="1" pageWidth="827" pageHeight="1169" math="0" shadow="0">
            <root>
                <mxCell id="8Q7ljTm89vep6kMNrNza-0"/>
                <mxCell id="8Q7ljTm89vep6kMNrNza-1" parent="8Q7ljTm89vep6kMNrNza-0"/>
                <mxCell id="8Q7ljTm89vep6kMNrNza-2" value="7" style="ellipse;whiteSpace=wrap;html=1;aspect=fixed;" parent="8Q7ljTm89vep6kMNrNza-1" vertex="1">
                    <mxGeometry x="399" y="130" width="30" height="30" as="geometry"/>
                </mxCell>
                <mxCell id="8Q7ljTm89vep6kMNrNza-3" value="3" style="ellipse;whiteSpace=wrap;html=1;aspect=fixed;fillColor=#f8cecc;strokeColor=#b85450;" parent="8Q7ljTm89vep6kMNrNza-1" vertex="1">
                    <mxGeometry x="338.66" y="80" width="30" height="30" as="geometry"/>
                </mxCell>
                <mxCell id="8Q7ljTm89vep6kMNrNza-4" value="" style="endArrow=none;html=1;entryX=0;entryY=0;entryDx=0;entryDy=0;exitX=1;exitY=1;exitDx=0;exitDy=0;" parent="8Q7ljTm89vep6kMNrNza-1" source="8Q7ljTm89vep6kMNrNza-3" target="8Q7ljTm89vep6kMNrNza-2" edge="1">
                    <mxGeometry width="50" height="50" relative="1" as="geometry">
                        <mxPoint x="320" y="230" as="sourcePoint"/>
                        <mxPoint x="370" y="180" as="targetPoint"/>
                    </mxGeometry>
                </mxCell>
                <mxCell id="8Q7ljTm89vep6kMNrNza-7" value="2" style="ellipse;whiteSpace=wrap;html=1;aspect=fixed;" parent="8Q7ljTm89vep6kMNrNza-1" vertex="1">
                    <mxGeometry x="280" y="130.00339828220183" width="30" height="30" as="geometry"/>
                </mxCell>
                <mxCell id="8Q7ljTm89vep6kMNrNza-8" value="" style="endArrow=none;html=1;entryX=0;entryY=1;entryDx=0;entryDy=0;exitX=1;exitY=0;exitDx=0;exitDy=0;" parent="8Q7ljTm89vep6kMNrNza-1" source="8Q7ljTm89vep6kMNrNza-7" target="8Q7ljTm89vep6kMNrNza-3" edge="1">
                    <mxGeometry width="50" height="50" relative="1" as="geometry">
                        <mxPoint x="275.61" y="274.3933982822018" as="sourcePoint"/>
                        <mxPoint x="260.00339828220183" y="200" as="targetPoint"/>
                    </mxGeometry>
                </mxCell>
                <mxCell id="8Q7ljTm89vep6kMNrNza-9" value="" style="rounded=0;whiteSpace=wrap;html=1;dashed=1;" parent="8Q7ljTm89vep6kMNrNza-1" vertex="1">
                    <mxGeometry x="338.66" y="174" width="101.34" height="90" as="geometry"/>
                </mxCell>
                <mxCell id="8Q7ljTm89vep6kMNrNza-10" value="5" style="ellipse;whiteSpace=wrap;html=1;aspect=fixed;" parent="8Q7ljTm89vep6kMNrNza-1" vertex="1">
                    <mxGeometry x="353.05339828220184" y="178.39339828220182" width="30" height="30" as="geometry"/>
                </mxCell>
                <mxCell id="8Q7ljTm89vep6kMNrNza-11" value="6" style="ellipse;whiteSpace=wrap;html=1;aspect=fixed;fillColor=#dae8fc;strokeColor=#6c8ebf;" parent="8Q7ljTm89vep6kMNrNza-1" vertex="1">
                    <mxGeometry x="397.4433982822018" y="222.7833982822018" width="30" height="30" as="geometry"/>
                </mxCell>
                <mxCell id="8Q7ljTm89vep6kMNrNza-12" value="" style="endArrow=none;html=1;exitX=0;exitY=0;exitDx=0;exitDy=0;" parent="8Q7ljTm89vep6kMNrNza-1" source="8Q7ljTm89vep6kMNrNza-11" target="8Q7ljTm89vep6kMNrNza-10" edge="1">
                    <mxGeometry width="50" height="50" relative="1" as="geometry">
                        <mxPoint x="497.4433982822018" y="302.7833982822018" as="sourcePoint"/>
                        <mxPoint x="378.6566017177982" y="203.99660171779817" as="targetPoint"/>
                    </mxGeometry>
                </mxCell>
                <mxCell id="8Q7ljTm89vep6kMNrNza-13" value="A" style="text;html=1;strokeColor=none;fillColor=none;align=center;verticalAlign=middle;whiteSpace=wrap;rounded=0;dashed=1;" parent="8Q7ljTm89vep6kMNrNza-1" vertex="1">
                    <mxGeometry x="338.66" y="244" width="18.66" height="16.95" as="geometry"/>
                </mxCell>
                <mxCell id="8Q7ljTm89vep6kMNrNza-14" value="" style="endArrow=none;html=1;entryX=0;entryY=1;entryDx=0;entryDy=0;exitX=1;exitY=0;exitDx=0;exitDy=0;" parent="8Q7ljTm89vep6kMNrNza-1" source="8Q7ljTm89vep6kMNrNza-10" target="8Q7ljTm89vep6kMNrNza-2" edge="1">
                    <mxGeometry width="50" height="50" relative="1" as="geometry">
                        <mxPoint x="480" y="280" as="sourcePoint"/>
                        <mxPoint x="530" y="230" as="targetPoint"/>
                    </mxGeometry>
                </mxCell>
                <mxCell id="8Q7ljTm89vep6kMNrNza-15" value="height: 3" style="text;html=1;strokeColor=none;fillColor=none;align=center;verticalAlign=middle;whiteSpace=wrap;rounded=0;dashed=1;" parent="8Q7ljTm89vep6kMNrNza-1" vertex="1">
                    <mxGeometry x="428.99999999999994" y="137" width="55.81" height="16.95" as="geometry"/>
                </mxCell>
                <mxCell id="8Q7ljTm89vep6kMNrNza-16" value="height: 1" style="text;html=1;strokeColor=none;fillColor=none;align=center;verticalAlign=middle;whiteSpace=wrap;rounded=0;dashed=1;" parent="8Q7ljTm89vep6kMNrNza-1" vertex="1">
                    <mxGeometry x="428.99999999999994" y="229.31" width="55.81" height="16.95" as="geometry"/>
                </mxCell>
                <mxCell id="8Q7ljTm89vep6kMNrNza-18" value="height: 1" style="text;html=1;strokeColor=none;fillColor=none;align=center;verticalAlign=middle;whiteSpace=wrap;rounded=0;dashed=1;" parent="8Q7ljTm89vep6kMNrNza-1" vertex="1">
                    <mxGeometry x="224.18999999999994" y="137" width="55.81" height="16.95" as="geometry"/>
                </mxCell>
                <mxCell id="8Q7ljTm89vep6kMNrNza-19" value="height: 2" style="text;html=1;strokeColor=none;fillColor=none;align=center;verticalAlign=middle;whiteSpace=wrap;rounded=0;dashed=1;" parent="8Q7ljTm89vep6kMNrNza-1" vertex="1">
                    <mxGeometry x="297.23999999999995" y="184.92000000000002" width="55.81" height="16.95" as="geometry"/>
                </mxCell>
                <mxCell id="8Q7ljTm89vep6kMNrNza-20" value="height: 4" style="text;html=1;strokeColor=none;fillColor=none;align=center;verticalAlign=middle;whiteSpace=wrap;rounded=0;dashed=1;" parent="8Q7ljTm89vep6kMNrNza-1" vertex="1">
                    <mxGeometry x="368.65999999999997" y="86.52000000000001" width="55.81" height="16.95" as="geometry"/>
                </mxCell>
            </root>
        </mxGraphModel>
    </diagram>
    <diagram id="HjXtBhXGumVUgl0-9iI4" name="Page-8">
        <mxGraphModel dx="434" dy="510" grid="1" gridSize="10" guides="1" tooltips="1" connect="1" arrows="1" fold="1" page="1" pageScale="1" pageWidth="827" pageHeight="1169" math="0" shadow="0">
            <root>
                <mxCell id="H1-oTZm72BTrfmYlyvsB-0"/>
                <mxCell id="H1-oTZm72BTrfmYlyvsB-1" parent="H1-oTZm72BTrfmYlyvsB-0"/>
                <mxCell id="H1-oTZm72BTrfmYlyvsB-3" value="7" style="ellipse;whiteSpace=wrap;html=1;aspect=fixed;" parent="H1-oTZm72BTrfmYlyvsB-1" vertex="1">
                    <mxGeometry x="354.19" y="100" width="30" height="30" as="geometry"/>
                </mxCell>
                <mxCell id="H1-oTZm72BTrfmYlyvsB-4" value="3" style="ellipse;whiteSpace=wrap;html=1;aspect=fixed;" parent="H1-oTZm72BTrfmYlyvsB-1" vertex="1">
                    <mxGeometry x="260" y="170" width="30" height="30" as="geometry"/>
                </mxCell>
                <mxCell id="H1-oTZm72BTrfmYlyvsB-5" value="" style="endArrow=none;html=1;entryX=0;entryY=1;entryDx=0;entryDy=0;exitX=1;exitY=0;exitDx=0;exitDy=0;" parent="H1-oTZm72BTrfmYlyvsB-1" source="H1-oTZm72BTrfmYlyvsB-4" target="H1-oTZm72BTrfmYlyvsB-3" edge="1">
                    <mxGeometry width="50" height="50" relative="1" as="geometry">
                        <mxPoint x="320" y="230" as="sourcePoint"/>
                        <mxPoint x="370" y="180" as="targetPoint"/>
                    </mxGeometry>
                </mxCell>
                <mxCell id="H1-oTZm72BTrfmYlyvsB-6" value="8" style="ellipse;whiteSpace=wrap;html=1;aspect=fixed;" parent="H1-oTZm72BTrfmYlyvsB-1" vertex="1">
                    <mxGeometry x="453.81" y="174" width="30" height="30" as="geometry"/>
                </mxCell>
                <mxCell id="H1-oTZm72BTrfmYlyvsB-7" value="" style="endArrow=none;html=1;entryX=1;entryY=1;entryDx=0;entryDy=0;exitX=0;exitY=0;exitDx=0;exitDy=0;" parent="H1-oTZm72BTrfmYlyvsB-1" source="H1-oTZm72BTrfmYlyvsB-6" target="H1-oTZm72BTrfmYlyvsB-3" edge="1">
                    <mxGeometry width="50" height="50" relative="1" as="geometry">
                        <mxPoint x="440" y="250" as="sourcePoint"/>
                        <mxPoint x="490" y="200" as="targetPoint"/>
                    </mxGeometry>
                </mxCell>
                <mxCell id="H1-oTZm72BTrfmYlyvsB-8" value="2" style="ellipse;whiteSpace=wrap;html=1;aspect=fixed;" parent="H1-oTZm72BTrfmYlyvsB-1" vertex="1">
                    <mxGeometry x="215.61" y="214.39339828220182" width="30" height="30" as="geometry"/>
                </mxCell>
                <mxCell id="H1-oTZm72BTrfmYlyvsB-9" value="" style="endArrow=none;html=1;entryX=0;entryY=1;entryDx=0;entryDy=0;exitX=1;exitY=0;exitDx=0;exitDy=0;" parent="H1-oTZm72BTrfmYlyvsB-1" source="H1-oTZm72BTrfmYlyvsB-8" target="H1-oTZm72BTrfmYlyvsB-4" edge="1">
                    <mxGeometry width="50" height="50" relative="1" as="geometry">
                        <mxPoint x="275.61" y="274.3933982822018" as="sourcePoint"/>
                        <mxPoint x="260.00339828220183" y="200" as="targetPoint"/>
                    </mxGeometry>
                </mxCell>
                <mxCell id="H1-oTZm72BTrfmYlyvsB-10" value="5" style="ellipse;whiteSpace=wrap;html=1;aspect=fixed;fillColor=#f8cecc;strokeColor=#b85450;" parent="H1-oTZm72BTrfmYlyvsB-1" vertex="1">
                    <mxGeometry x="304.3933982822018" y="214.39339828220182" width="30" height="30" as="geometry"/>
                </mxCell>
                <mxCell id="H1-oTZm72BTrfmYlyvsB-11" value="" style="endArrow=none;html=1;entryX=1;entryY=1;entryDx=0;entryDy=0;exitX=0;exitY=0;exitDx=0;exitDy=0;" parent="H1-oTZm72BTrfmYlyvsB-1" source="H1-oTZm72BTrfmYlyvsB-10" target="H1-oTZm72BTrfmYlyvsB-4" edge="1">
                    <mxGeometry width="50" height="50" relative="1" as="geometry">
                        <mxPoint x="404.3933982822018" y="294.3933982822018" as="sourcePoint"/>
                        <mxPoint x="290" y="200" as="targetPoint"/>
                    </mxGeometry>
                </mxCell>
                <mxCell id="H1-oTZm72BTrfmYlyvsB-12" value="6" style="ellipse;whiteSpace=wrap;html=1;aspect=fixed;fillColor=#dae8fc;strokeColor=#6c8ebf;" parent="H1-oTZm72BTrfmYlyvsB-1" vertex="1">
                    <mxGeometry x="348.7833982822018" y="258.7833982822018" width="30" height="30" as="geometry"/>
                </mxCell>
                <mxCell id="H1-oTZm72BTrfmYlyvsB-13" value="" style="endArrow=none;html=1;exitX=0;exitY=0;exitDx=0;exitDy=0;" parent="H1-oTZm72BTrfmYlyvsB-1" source="H1-oTZm72BTrfmYlyvsB-12" target="H1-oTZm72BTrfmYlyvsB-10" edge="1">
                    <mxGeometry width="50" height="50" relative="1" as="geometry">
                        <mxPoint x="448.7833982822018" y="338.7833982822018" as="sourcePoint"/>
                        <mxPoint x="329.99660171779817" y="239.99660171779817" as="targetPoint"/>
                    </mxGeometry>
                </mxCell>
                <mxCell id="H22gnp8aeyoIXjQLkcSW-0" value="height: 1" style="text;html=1;strokeColor=none;fillColor=none;align=center;verticalAlign=middle;whiteSpace=wrap;rounded=0;dashed=1;" parent="H1-oTZm72BTrfmYlyvsB-1" vertex="1">
                    <mxGeometry x="378.78" y="265.31" width="55.81" height="16.95" as="geometry"/>
                </mxCell>
                <mxCell id="H22gnp8aeyoIXjQLkcSW-1" value="height: 1" style="text;html=1;strokeColor=none;fillColor=none;align=center;verticalAlign=middle;whiteSpace=wrap;rounded=0;dashed=1;" parent="H1-oTZm72BTrfmYlyvsB-1" vertex="1">
                    <mxGeometry x="483.80999999999995" y="180.53" width="55.81" height="16.95" as="geometry"/>
                </mxCell>
                <mxCell id="H22gnp8aeyoIXjQLkcSW-2" value="height: 1" style="text;html=1;strokeColor=none;fillColor=none;align=center;verticalAlign=middle;whiteSpace=wrap;rounded=0;dashed=1;" parent="H1-oTZm72BTrfmYlyvsB-1" vertex="1">
                    <mxGeometry x="159.79999999999995" y="220.92000000000002" width="55.81" height="16.95" as="geometry"/>
                </mxCell>
                <mxCell id="H22gnp8aeyoIXjQLkcSW-3" value="height: 2" style="text;html=1;strokeColor=none;fillColor=none;align=center;verticalAlign=middle;whiteSpace=wrap;rounded=0;dashed=1;" parent="H1-oTZm72BTrfmYlyvsB-1" vertex="1">
                    <mxGeometry x="335.87999999999994" y="220.92000000000002" width="55.81" height="16.95" as="geometry"/>
                </mxCell>
                <mxCell id="H22gnp8aeyoIXjQLkcSW-4" value="height: 3&lt;span style=&quot;color: rgba(0 , 0 , 0 , 0) ; font-family: monospace ; font-size: 0px&quot;&gt;%3CmxGraphModel%3E%3Croot%3E%3CmxCell%20id%3D%220%22%2F%3E%3CmxCell%20id%3D%221%22%20parent%3D%220%22%2F%3E%3CmxCell%20id%3D%222%22%20value%3D%22height%3A%201%22%20style%3D%22text%3Bhtml%3D1%3BstrokeColor%3Dnone%3BfillColor%3Dnone%3Balign%3Dcenter%3BverticalAlign%3Dmiddle%3BwhiteSpace%3Dwrap%3Brounded%3D0%3Bdashed%3D1%3B%22%20vertex%3D%221%22%20parent%3D%221%22%3E%3CmxGeometry%20x%3D%22428.99999999999994%22%20y%3D%22229.31%22%20width%3D%2255.81%22%20height%3D%2216.95%22%20as%3D%22geometry%22%2F%3E%3C%2FmxCell%3E%3C%2Froot%3E%3C%2FmxGraphModel%3E&lt;/span&gt;" style="text;html=1;strokeColor=none;fillColor=none;align=center;verticalAlign=middle;whiteSpace=wrap;rounded=0;dashed=1;" parent="H1-oTZm72BTrfmYlyvsB-1" vertex="1">
                    <mxGeometry x="202.70999999999992" y="176.53" width="55.81" height="16.95" as="geometry"/>
                </mxCell>
                <mxCell id="H22gnp8aeyoIXjQLkcSW-5" value="height: 4" style="text;html=1;strokeColor=none;fillColor=none;align=center;verticalAlign=middle;whiteSpace=wrap;rounded=0;dashed=1;" parent="H1-oTZm72BTrfmYlyvsB-1" vertex="1">
                    <mxGeometry x="298.37999999999994" y="106.53" width="55.81" height="16.95" as="geometry"/>
                </mxCell>
            </root>
        </mxGraphModel>
    </diagram>
    <diagram id="BmaoJyDzuE1ZvGXE7yu4" name="Page-9">
        <mxGraphModel dx="434" dy="510" grid="1" gridSize="10" guides="1" tooltips="1" connect="1" arrows="1" fold="1" page="1" pageScale="1" pageWidth="827" pageHeight="1169" math="0" shadow="0">
            <root>
                <mxCell id="-H8onjYvvkz0MSpfTc7S-0"/>
                <mxCell id="-H8onjYvvkz0MSpfTc7S-1" parent="-H8onjYvvkz0MSpfTc7S-0"/>
                <mxCell id="-H8onjYvvkz0MSpfTc7S-3" value="7" style="ellipse;whiteSpace=wrap;html=1;aspect=fixed;" parent="-H8onjYvvkz0MSpfTc7S-1" vertex="1">
                    <mxGeometry x="354.19" y="100" width="30" height="30" as="geometry"/>
                </mxCell>
                <mxCell id="-H8onjYvvkz0MSpfTc7S-4" value="3" style="ellipse;whiteSpace=wrap;html=1;aspect=fixed;" parent="-H8onjYvvkz0MSpfTc7S-1" vertex="1">
                    <mxGeometry x="230.2" y="225.60999999999999" width="30" height="30" as="geometry"/>
                </mxCell>
                <mxCell id="-H8onjYvvkz0MSpfTc7S-5" value="" style="endArrow=none;html=1;entryX=0;entryY=1;entryDx=0;entryDy=0;exitX=1;exitY=0;exitDx=0;exitDy=0;" parent="-H8onjYvvkz0MSpfTc7S-1" source="-H8onjYvvkz0MSpfTc7S-10" target="-H8onjYvvkz0MSpfTc7S-3" edge="1">
                    <mxGeometry width="50" height="50" relative="1" as="geometry">
                        <mxPoint x="320" y="230" as="sourcePoint"/>
                        <mxPoint x="370" y="180" as="targetPoint"/>
                    </mxGeometry>
                </mxCell>
                <mxCell id="-H8onjYvvkz0MSpfTc7S-6" value="8" style="ellipse;whiteSpace=wrap;html=1;aspect=fixed;" parent="-H8onjYvvkz0MSpfTc7S-1" vertex="1">
                    <mxGeometry x="453.81" y="174" width="30" height="30" as="geometry"/>
                </mxCell>
                <mxCell id="-H8onjYvvkz0MSpfTc7S-7" value="" style="endArrow=none;html=1;entryX=1;entryY=1;entryDx=0;entryDy=0;exitX=0;exitY=0;exitDx=0;exitDy=0;" parent="-H8onjYvvkz0MSpfTc7S-1" source="-H8onjYvvkz0MSpfTc7S-6" target="-H8onjYvvkz0MSpfTc7S-3" edge="1">
                    <mxGeometry width="50" height="50" relative="1" as="geometry">
                        <mxPoint x="440" y="250" as="sourcePoint"/>
                        <mxPoint x="490" y="200" as="targetPoint"/>
                    </mxGeometry>
                </mxCell>
                <mxCell id="-H8onjYvvkz0MSpfTc7S-8" value="2" style="ellipse;whiteSpace=wrap;html=1;aspect=fixed;" parent="-H8onjYvvkz0MSpfTc7S-1" vertex="1">
                    <mxGeometry x="184.39000000000001" y="280.00339828220183" width="30" height="30" as="geometry"/>
                </mxCell>
                <mxCell id="-H8onjYvvkz0MSpfTc7S-9" value="" style="endArrow=none;html=1;entryX=0;entryY=1;entryDx=0;entryDy=0;exitX=1;exitY=0;exitDx=0;exitDy=0;" parent="-H8onjYvvkz0MSpfTc7S-1" source="-H8onjYvvkz0MSpfTc7S-8" target="-H8onjYvvkz0MSpfTc7S-4" edge="1">
                    <mxGeometry width="50" height="50" relative="1" as="geometry">
                        <mxPoint x="245.81" y="330.00339828220183" as="sourcePoint"/>
                        <mxPoint x="230.20339828220182" y="255.60999999999999" as="targetPoint"/>
                    </mxGeometry>
                </mxCell>
                <mxCell id="-H8onjYvvkz0MSpfTc7S-10" value="5" style="ellipse;whiteSpace=wrap;html=1;aspect=fixed;fillColor=#f8cecc;strokeColor=#b85450;" parent="-H8onjYvvkz0MSpfTc7S-1" vertex="1">
                    <mxGeometry x="270.2033982822018" y="180.5333982822018" width="30" height="30" as="geometry"/>
                </mxCell>
                <mxCell id="-H8onjYvvkz0MSpfTc7S-11" value="" style="endArrow=none;html=1;entryX=1;entryY=0;entryDx=0;entryDy=0;exitX=0;exitY=1;exitDx=0;exitDy=0;" parent="-H8onjYvvkz0MSpfTc7S-1" source="-H8onjYvvkz0MSpfTc7S-10" target="-H8onjYvvkz0MSpfTc7S-4" edge="1">
                    <mxGeometry width="50" height="50" relative="1" as="geometry">
                        <mxPoint x="404.3933982822018" y="294.3933982822018" as="sourcePoint"/>
                        <mxPoint x="290" y="200" as="targetPoint"/>
                    </mxGeometry>
                </mxCell>
                <mxCell id="-H8onjYvvkz0MSpfTc7S-12" value="6" style="ellipse;whiteSpace=wrap;html=1;aspect=fixed;fillColor=#dae8fc;strokeColor=#6c8ebf;" parent="-H8onjYvvkz0MSpfTc7S-1" vertex="1">
                    <mxGeometry x="310.00339828220183" y="225.61339828220179" width="30" height="30" as="geometry"/>
                </mxCell>
                <mxCell id="-H8onjYvvkz0MSpfTc7S-13" value="" style="endArrow=none;html=1;exitX=0;exitY=0;exitDx=0;exitDy=0;" parent="-H8onjYvvkz0MSpfTc7S-1" source="-H8onjYvvkz0MSpfTc7S-12" target="-H8onjYvvkz0MSpfTc7S-10" edge="1">
                    <mxGeometry width="50" height="50" relative="1" as="geometry">
                        <mxPoint x="448.7833982822018" y="338.7833982822018" as="sourcePoint"/>
                        <mxPoint x="329.99660171779817" y="239.99660171779817" as="targetPoint"/>
                    </mxGeometry>
                </mxCell>
                <mxCell id="-H8onjYvvkz0MSpfTc7S-15" value="height: 1" style="text;html=1;strokeColor=none;fillColor=none;align=center;verticalAlign=middle;whiteSpace=wrap;rounded=0;dashed=1;" parent="-H8onjYvvkz0MSpfTc7S-1" vertex="1">
                    <mxGeometry x="340" y="232.14" width="55.81" height="16.95" as="geometry"/>
                </mxCell>
                <mxCell id="-H8onjYvvkz0MSpfTc7S-16" value="height: 1" style="text;html=1;strokeColor=none;fillColor=none;align=center;verticalAlign=middle;whiteSpace=wrap;rounded=0;dashed=1;" parent="-H8onjYvvkz0MSpfTc7S-1" vertex="1">
                    <mxGeometry x="483.80999999999995" y="180.53" width="55.81" height="16.95" as="geometry"/>
                </mxCell>
                <mxCell id="-H8onjYvvkz0MSpfTc7S-17" value="height: 1" style="text;html=1;strokeColor=none;fillColor=none;align=center;verticalAlign=middle;whiteSpace=wrap;rounded=0;dashed=1;" parent="-H8onjYvvkz0MSpfTc7S-1" vertex="1">
                    <mxGeometry x="129.99999999999994" y="286.53" width="55.81" height="16.95" as="geometry"/>
                </mxCell>
                <mxCell id="-H8onjYvvkz0MSpfTc7S-18" value="height: 3" style="text;html=1;strokeColor=none;fillColor=none;align=center;verticalAlign=middle;whiteSpace=wrap;rounded=0;dashed=1;" parent="-H8onjYvvkz0MSpfTc7S-1" vertex="1">
                    <mxGeometry x="214.38999999999993" y="187.05" width="55.81" height="16.95" as="geometry"/>
                </mxCell>
                <mxCell id="-H8onjYvvkz0MSpfTc7S-19" value="height: 2&lt;span style=&quot;color: rgba(0 , 0 , 0 , 0) ; font-family: monospace ; font-size: 0px&quot;&gt;%3CmxGraphModel%3E%3Croot%3E%3CmxCell%20id%3D%220%22%2F%3E%3CmxCell%20id%3D%221%22%20parent%3D%220%22%2F%3E%3CmxCell%20id%3D%222%22%20value%3D%22height%3A%201%22%20style%3D%22text%3Bhtml%3D1%3BstrokeColor%3Dnone%3BfillColor%3Dnone%3Balign%3Dcenter%3BverticalAlign%3Dmiddle%3BwhiteSpace%3Dwrap%3Brounded%3D0%3Bdashed%3D1%3B%22%20vertex%3D%221%22%20parent%3D%221%22%3E%3CmxGeometry%20x%3D%22428.99999999999994%22%20y%3D%22229.31%22%20width%3D%2255.81%22%20height%3D%2216.95%22%20as%3D%22geometry%22%2F%3E%3C%2FmxCell%3E%3C%2Froot%3E%3C%2FmxGraphModel%3&lt;/span&gt;" style="text;html=1;strokeColor=none;fillColor=none;align=center;verticalAlign=middle;whiteSpace=wrap;rounded=0;dashed=1;" parent="-H8onjYvvkz0MSpfTc7S-1" vertex="1">
                    <mxGeometry x="172.9099999999999" y="232.14000000000001" width="55.81" height="16.95" as="geometry"/>
                </mxCell>
                <mxCell id="-H8onjYvvkz0MSpfTc7S-20" value="height: 4" style="text;html=1;strokeColor=none;fillColor=none;align=center;verticalAlign=middle;whiteSpace=wrap;rounded=0;dashed=1;" parent="-H8onjYvvkz0MSpfTc7S-1" vertex="1">
                    <mxGeometry x="298.37999999999994" y="106.53" width="55.81" height="16.95" as="geometry"/>
                </mxCell>
            </root>
        </mxGraphModel>
    </diagram>
    <diagram id="GkJF3mGA49cZQFr7_4i2" name="Page-10">
        <mxGraphModel dx="434" dy="510" grid="1" gridSize="10" guides="1" tooltips="1" connect="1" arrows="1" fold="1" page="1" pageScale="1" pageWidth="827" pageHeight="1169" math="0" shadow="0">
            <root>
                <mxCell id="DL7Axzzv_FoGu2hxJbO5-0"/>
                <mxCell id="DL7Axzzv_FoGu2hxJbO5-1" parent="DL7Axzzv_FoGu2hxJbO5-0"/>
                <mxCell id="DL7Axzzv_FoGu2hxJbO5-2" value="7" style="ellipse;whiteSpace=wrap;html=1;aspect=fixed;" vertex="1" parent="DL7Axzzv_FoGu2hxJbO5-1">
                    <mxGeometry x="354.19" y="100" width="30" height="30" as="geometry"/>
                </mxCell>
                <mxCell id="DL7Axzzv_FoGu2hxJbO5-3" value="3" style="ellipse;whiteSpace=wrap;html=1;aspect=fixed;" vertex="1" parent="DL7Axzzv_FoGu2hxJbO5-1">
                    <mxGeometry x="230.2" y="225.60999999999999" width="30" height="30" as="geometry"/>
                </mxCell>
                <mxCell id="DL7Axzzv_FoGu2hxJbO5-4" value="" style="endArrow=none;html=1;entryX=0;entryY=1;entryDx=0;entryDy=0;exitX=1;exitY=0;exitDx=0;exitDy=0;" edge="1" parent="DL7Axzzv_FoGu2hxJbO5-1" source="DL7Axzzv_FoGu2hxJbO5-9" target="DL7Axzzv_FoGu2hxJbO5-2">
                    <mxGeometry width="50" height="50" relative="1" as="geometry">
                        <mxPoint x="320" y="230" as="sourcePoint"/>
                        <mxPoint x="370" y="180" as="targetPoint"/>
                    </mxGeometry>
                </mxCell>
                <mxCell id="DL7Axzzv_FoGu2hxJbO5-5" value="8" style="ellipse;whiteSpace=wrap;html=1;aspect=fixed;" vertex="1" parent="DL7Axzzv_FoGu2hxJbO5-1">
                    <mxGeometry x="453.81" y="174" width="30" height="30" as="geometry"/>
                </mxCell>
                <mxCell id="DL7Axzzv_FoGu2hxJbO5-6" value="" style="endArrow=none;html=1;entryX=1;entryY=1;entryDx=0;entryDy=0;exitX=0;exitY=0;exitDx=0;exitDy=0;" edge="1" parent="DL7Axzzv_FoGu2hxJbO5-1" source="DL7Axzzv_FoGu2hxJbO5-5" target="DL7Axzzv_FoGu2hxJbO5-2">
                    <mxGeometry width="50" height="50" relative="1" as="geometry">
                        <mxPoint x="440" y="250" as="sourcePoint"/>
                        <mxPoint x="490" y="200" as="targetPoint"/>
                    </mxGeometry>
                </mxCell>
                <mxCell id="DL7Axzzv_FoGu2hxJbO5-7" value="2" style="ellipse;whiteSpace=wrap;html=1;aspect=fixed;" vertex="1" parent="DL7Axzzv_FoGu2hxJbO5-1">
                    <mxGeometry x="184.39000000000001" y="280.00339828220183" width="30" height="30" as="geometry"/>
                </mxCell>
                <mxCell id="DL7Axzzv_FoGu2hxJbO5-8" value="" style="endArrow=none;html=1;entryX=0;entryY=1;entryDx=0;entryDy=0;exitX=1;exitY=0;exitDx=0;exitDy=0;" edge="1" parent="DL7Axzzv_FoGu2hxJbO5-1" source="DL7Axzzv_FoGu2hxJbO5-7" target="DL7Axzzv_FoGu2hxJbO5-3">
                    <mxGeometry width="50" height="50" relative="1" as="geometry">
                        <mxPoint x="245.81" y="330.00339828220183" as="sourcePoint"/>
                        <mxPoint x="230.20339828220182" y="255.60999999999999" as="targetPoint"/>
                    </mxGeometry>
                </mxCell>
                <mxCell id="DL7Axzzv_FoGu2hxJbO5-9" value="5" style="ellipse;whiteSpace=wrap;html=1;aspect=fixed;fillColor=#f8cecc;strokeColor=#b85450;" vertex="1" parent="DL7Axzzv_FoGu2hxJbO5-1">
                    <mxGeometry x="270.2033982822018" y="180.5333982822018" width="30" height="30" as="geometry"/>
                </mxCell>
                <mxCell id="DL7Axzzv_FoGu2hxJbO5-10" value="" style="endArrow=none;html=1;entryX=1;entryY=0;entryDx=0;entryDy=0;exitX=0;exitY=1;exitDx=0;exitDy=0;" edge="1" parent="DL7Axzzv_FoGu2hxJbO5-1" source="DL7Axzzv_FoGu2hxJbO5-9" target="DL7Axzzv_FoGu2hxJbO5-3">
                    <mxGeometry width="50" height="50" relative="1" as="geometry">
                        <mxPoint x="404.3933982822018" y="294.3933982822018" as="sourcePoint"/>
                        <mxPoint x="290" y="200" as="targetPoint"/>
                    </mxGeometry>
                </mxCell>
                <mxCell id="DL7Axzzv_FoGu2hxJbO5-14" value="height: 1" style="text;html=1;strokeColor=none;fillColor=none;align=center;verticalAlign=middle;whiteSpace=wrap;rounded=0;dashed=1;" vertex="1" parent="DL7Axzzv_FoGu2hxJbO5-1">
                    <mxGeometry x="483.80999999999995" y="180.53" width="55.81" height="16.95" as="geometry"/>
                </mxCell>
                <mxCell id="DL7Axzzv_FoGu2hxJbO5-15" value="height: 1" style="text;html=1;strokeColor=none;fillColor=none;align=center;verticalAlign=middle;whiteSpace=wrap;rounded=0;dashed=1;" vertex="1" parent="DL7Axzzv_FoGu2hxJbO5-1">
                    <mxGeometry x="129.99999999999994" y="286.53" width="55.81" height="16.95" as="geometry"/>
                </mxCell>
                <mxCell id="DL7Axzzv_FoGu2hxJbO5-16" value="height: 3" style="text;html=1;strokeColor=none;fillColor=none;align=center;verticalAlign=middle;whiteSpace=wrap;rounded=0;dashed=1;" vertex="1" parent="DL7Axzzv_FoGu2hxJbO5-1">
                    <mxGeometry x="214.38999999999993" y="187.05" width="55.81" height="16.95" as="geometry"/>
                </mxCell>
                <mxCell id="DL7Axzzv_FoGu2hxJbO5-17" value="height: 2&lt;span style=&quot;color: rgba(0 , 0 , 0 , 0) ; font-family: monospace ; font-size: 0px&quot;&gt;%3CmxGraphModel%3E%3Croot%3E%3CmxCell%20id%3D%220%22%2F%3E%3CmxCell%20id%3D%221%22%20parent%3D%220%22%2F%3E%3CmxCell%20id%3D%222%22%20value%3D%22height%3A%201%22%20style%3D%22text%3Bhtml%3D1%3BstrokeColor%3Dnone%3BfillColor%3Dnone%3Balign%3Dcenter%3BverticalAlign%3Dmiddle%3BwhiteSpace%3Dwrap%3Brounded%3D0%3Bdashed%3D1%3B%22%20vertex%3D%221%22%20parent%3D%221%22%3E%3CmxGeometry%20x%3D%22428.99999999999994%22%20y%3D%22229.31%22%20width%3D%2255.81%22%20height%3D%2216.95%22%20as%3D%22geometry%22%2F%3E%3C%2FmxCell%3E%3C%2Froot%3E%3C%2FmxGraphModel%3&lt;/span&gt;" style="text;html=1;strokeColor=none;fillColor=none;align=center;verticalAlign=middle;whiteSpace=wrap;rounded=0;dashed=1;" vertex="1" parent="DL7Axzzv_FoGu2hxJbO5-1">
                    <mxGeometry x="172.9099999999999" y="232.14000000000001" width="55.81" height="16.95" as="geometry"/>
                </mxCell>
                <mxCell id="DL7Axzzv_FoGu2hxJbO5-18" value="height: 4" style="text;html=1;strokeColor=none;fillColor=none;align=center;verticalAlign=middle;whiteSpace=wrap;rounded=0;dashed=1;" vertex="1" parent="DL7Axzzv_FoGu2hxJbO5-1">
                    <mxGeometry x="298.37999999999994" y="106.53" width="55.81" height="16.95" as="geometry"/>
                </mxCell>
            </root>
        </mxGraphModel>
    </diagram>
    <diagram id="fs2loaUKoOqtDX-jcuwp" name="Page-11">
        <mxGraphModel dx="434" dy="510" grid="1" gridSize="10" guides="1" tooltips="1" connect="1" arrows="1" fold="1" page="1" pageScale="1" pageWidth="827" pageHeight="1169" math="0" shadow="0">
            <root>
                <mxCell id="DUSYHw2WkPt-hISkdjXi-0"/>
                <mxCell id="DUSYHw2WkPt-hISkdjXi-1" parent="DUSYHw2WkPt-hISkdjXi-0"/>
                <mxCell id="DUSYHw2WkPt-hISkdjXi-2" value="" style="rounded=0;whiteSpace=wrap;html=1;dashed=1;" vertex="1" parent="DUSYHw2WkPt-hISkdjXi-1">
                    <mxGeometry x="274.2" y="275.48" width="49.8" height="57.05" as="geometry"/>
                </mxCell>
                <mxCell id="DUSYHw2WkPt-hISkdjXi-3" value="A" style="text;html=1;strokeColor=none;fillColor=none;align=center;verticalAlign=middle;whiteSpace=wrap;rounded=0;dashed=1;" vertex="1" parent="DUSYHw2WkPt-hISkdjXi-1">
                    <mxGeometry x="274.20000000000005" y="312.53000000000003" width="18.66" height="16.95" as="geometry"/>
                </mxCell>
                <mxCell id="DUSYHw2WkPt-hISkdjXi-4" value="7" style="ellipse;whiteSpace=wrap;html=1;aspect=fixed;" vertex="1" parent="DUSYHw2WkPt-hISkdjXi-1">
                    <mxGeometry x="311.28" y="225.60999999999999" width="30" height="30" as="geometry"/>
                </mxCell>
                <mxCell id="DUSYHw2WkPt-hISkdjXi-5" value="3" style="ellipse;whiteSpace=wrap;html=1;aspect=fixed;" vertex="1" parent="DUSYHw2WkPt-hISkdjXi-1">
                    <mxGeometry x="230.2" y="225.60999999999999" width="30" height="30" as="geometry"/>
                </mxCell>
                <mxCell id="DUSYHw2WkPt-hISkdjXi-6" value="" style="endArrow=none;html=1;" edge="1" parent="DUSYHw2WkPt-hISkdjXi-1" source="DUSYHw2WkPt-hISkdjXi-11" target="DUSYHw2WkPt-hISkdjXi-4">
                    <mxGeometry width="50" height="50" relative="1" as="geometry">
                        <mxPoint x="320" y="230" as="sourcePoint"/>
                        <mxPoint x="370" y="180" as="targetPoint"/>
                    </mxGeometry>
                </mxCell>
                <mxCell id="DUSYHw2WkPt-hISkdjXi-7" value="8" style="ellipse;whiteSpace=wrap;html=1;aspect=fixed;" vertex="1" parent="DUSYHw2WkPt-hISkdjXi-1">
                    <mxGeometry x="354.19" y="280" width="30" height="30" as="geometry"/>
                </mxCell>
                <mxCell id="DUSYHw2WkPt-hISkdjXi-8" value="" style="endArrow=none;html=1;entryX=1;entryY=1;entryDx=0;entryDy=0;exitX=0;exitY=0;exitDx=0;exitDy=0;" edge="1" parent="DUSYHw2WkPt-hISkdjXi-1" source="DUSYHw2WkPt-hISkdjXi-7" target="DUSYHw2WkPt-hISkdjXi-4">
                    <mxGeometry width="50" height="50" relative="1" as="geometry">
                        <mxPoint x="440" y="250" as="sourcePoint"/>
                        <mxPoint x="490" y="200" as="targetPoint"/>
                    </mxGeometry>
                </mxCell>
                <mxCell id="DUSYHw2WkPt-hISkdjXi-9" value="2" style="ellipse;whiteSpace=wrap;html=1;aspect=fixed;" vertex="1" parent="DUSYHw2WkPt-hISkdjXi-1">
                    <mxGeometry x="184.39000000000001" y="280.00339828220183" width="30" height="30" as="geometry"/>
                </mxCell>
                <mxCell id="DUSYHw2WkPt-hISkdjXi-10" value="" style="endArrow=none;html=1;entryX=0;entryY=1;entryDx=0;entryDy=0;exitX=1;exitY=0;exitDx=0;exitDy=0;" edge="1" parent="DUSYHw2WkPt-hISkdjXi-1" source="DUSYHw2WkPt-hISkdjXi-9" target="DUSYHw2WkPt-hISkdjXi-5">
                    <mxGeometry width="50" height="50" relative="1" as="geometry">
                        <mxPoint x="245.81" y="330.00339828220183" as="sourcePoint"/>
                        <mxPoint x="230.20339828220182" y="255.60999999999999" as="targetPoint"/>
                    </mxGeometry>
                </mxCell>
                <mxCell id="DUSYHw2WkPt-hISkdjXi-11" value="5" style="ellipse;whiteSpace=wrap;html=1;aspect=fixed;fillColor=#f8cecc;strokeColor=#b85450;" vertex="1" parent="DUSYHw2WkPt-hISkdjXi-1">
                    <mxGeometry x="270.2033982822018" y="180.5333982822018" width="30" height="30" as="geometry"/>
                </mxCell>
                <mxCell id="DUSYHw2WkPt-hISkdjXi-12" value="" style="endArrow=none;html=1;entryX=1;entryY=0;entryDx=0;entryDy=0;exitX=0;exitY=1;exitDx=0;exitDy=0;" edge="1" parent="DUSYHw2WkPt-hISkdjXi-1" source="DUSYHw2WkPt-hISkdjXi-11" target="DUSYHw2WkPt-hISkdjXi-5">
                    <mxGeometry width="50" height="50" relative="1" as="geometry">
                        <mxPoint x="404.3933982822018" y="294.3933982822018" as="sourcePoint"/>
                        <mxPoint x="290" y="200" as="targetPoint"/>
                    </mxGeometry>
                </mxCell>
                <mxCell id="DUSYHw2WkPt-hISkdjXi-13" value="6" style="ellipse;whiteSpace=wrap;html=1;aspect=fixed;fillColor=#dae8fc;strokeColor=#6c8ebf;" vertex="1" parent="DUSYHw2WkPt-hISkdjXi-1">
                    <mxGeometry x="284.00339828220183" y="281.0933982822018" width="30" height="30" as="geometry"/>
                </mxCell>
                <mxCell id="DUSYHw2WkPt-hISkdjXi-14" value="" style="endArrow=none;html=1;" edge="1" parent="DUSYHw2WkPt-hISkdjXi-1" source="DUSYHw2WkPt-hISkdjXi-13" target="DUSYHw2WkPt-hISkdjXi-4">
                    <mxGeometry width="50" height="50" relative="1" as="geometry">
                        <mxPoint x="388.61339828220184" y="451.8333982822018" as="sourcePoint"/>
                        <mxPoint x="234.76759737344273" y="319.9959075615878" as="targetPoint"/>
                    </mxGeometry>
                </mxCell>
                <mxCell id="DUSYHw2WkPt-hISkdjXi-15" value="height: 1" style="text;html=1;strokeColor=none;fillColor=none;align=center;verticalAlign=middle;whiteSpace=wrap;rounded=0;dashed=1;" vertex="1" parent="DUSYHw2WkPt-hISkdjXi-1">
                    <mxGeometry x="228.19000000000005" y="287.62" width="55.81" height="16.95" as="geometry"/>
                </mxCell>
                <mxCell id="DUSYHw2WkPt-hISkdjXi-16" value="height: 1" style="text;html=1;strokeColor=none;fillColor=none;align=center;verticalAlign=middle;whiteSpace=wrap;rounded=0;dashed=1;" vertex="1" parent="DUSYHw2WkPt-hISkdjXi-1">
                    <mxGeometry x="384.18999999999994" y="286.53" width="55.81" height="16.95" as="geometry"/>
                </mxCell>
                <mxCell id="DUSYHw2WkPt-hISkdjXi-17" value="height: 1" style="text;html=1;strokeColor=none;fillColor=none;align=center;verticalAlign=middle;whiteSpace=wrap;rounded=0;dashed=1;" vertex="1" parent="DUSYHw2WkPt-hISkdjXi-1">
                    <mxGeometry x="129.99999999999994" y="286.53" width="55.81" height="16.95" as="geometry"/>
                </mxCell>
                <mxCell id="DUSYHw2WkPt-hISkdjXi-18" value="height: 3" style="text;html=1;strokeColor=none;fillColor=none;align=center;verticalAlign=middle;whiteSpace=wrap;rounded=0;dashed=1;" vertex="1" parent="DUSYHw2WkPt-hISkdjXi-1">
                    <mxGeometry x="214.38999999999993" y="187.05" width="55.81" height="16.95" as="geometry"/>
                </mxCell>
                <mxCell id="DUSYHw2WkPt-hISkdjXi-19" value="height: 2&lt;span style=&quot;color: rgba(0 , 0 , 0 , 0) ; font-family: monospace ; font-size: 0px&quot;&gt;%3CmxGraphModel%3E%3Croot%3E%3CmxCell%20id%3D%220%22%2F%3E%3CmxCell%20id%3D%221%22%20parent%3D%220%22%2F%3E%3CmxCell%20id%3D%222%22%20value%3D%22height%3A%201%22%20style%3D%22text%3Bhtml%3D1%3BstrokeColor%3Dnone%3BfillColor%3Dnone%3Balign%3Dcenter%3BverticalAlign%3Dmiddle%3BwhiteSpace%3Dwrap%3Brounded%3D0%3Bdashed%3D1%3B%22%20vertex%3D%221%22%20parent%3D%221%22%3E%3CmxGeometry%20x%3D%22428.99999999999994%22%20y%3D%22229.31%22%20width%3D%2255.81%22%20height%3D%2216.95%22%20as%3D%22geometry%22%2F%3E%3C%2FmxCell%3E%3C%2Froot%3E%3C%2FmxGraphModel%3&lt;/span&gt;" style="text;html=1;strokeColor=none;fillColor=none;align=center;verticalAlign=middle;whiteSpace=wrap;rounded=0;dashed=1;" vertex="1" parent="DUSYHw2WkPt-hISkdjXi-1">
                    <mxGeometry x="172.9099999999999" y="232.14000000000001" width="55.81" height="16.95" as="geometry"/>
                </mxCell>
                <mxCell id="DUSYHw2WkPt-hISkdjXi-20" value="height: 2" style="text;html=1;strokeColor=none;fillColor=none;align=center;verticalAlign=middle;whiteSpace=wrap;rounded=0;dashed=1;" vertex="1" parent="DUSYHw2WkPt-hISkdjXi-1">
                    <mxGeometry x="341.28999999999996" y="232.14" width="55.81" height="16.95" as="geometry"/>
                </mxCell>
            </root>
        </mxGraphModel>
    </diagram>
</mxfile>